<svg xmlns="http://www.w3.org/2000/svg" width="16" height="16" fill="none" viewBox="0 0 16 16"><path fill="#fff" d="M12.875 3.875c.188 0 .375.188.375.375v.375c0 .21-.187.375-.375.375H12.5l-.516 7.945c-.023.586-.539 1.055-1.125 1.055H5.117c-.586 0-1.101-.469-1.125-1.055L3.5 5h-.375a.37.37 0 0 1-.375-.375V4.25c0-.187.164-.375.375-.375h1.922l.797-1.312c.187-.305.61-.563.96-.563h2.368c.351 0 .773.258.96.563l.798 1.312zm-6.07-.75-.446.75h3.258l-.445-.75zm4.054 9.75L11.352 5H4.625l.492 7.875z"/></svg>